# xmcd
#
# Track frame offsets: 
#        150
#        15932
#        28923
#        40691
#        58331
#        72011
#        84335
#        98306
#        115564
#        129162
#        149899
#
# Disc length: 2201 seconds
#
# Revision: 2
# Processed by: cddbd v1.5.2PL0 Copyright (c) Steve Scherf et al.
# Submitted via: ExactAudioCopy v0.99pb4
#
DISCID=8408970b
DTITLE=Olivia Newton-John - The Essential
DYEAR=2006
DGENRE=Country
TTITLE0=Have You Never Been Mellow
TTITLE1=Loving Arms
TTITLE2=Lifestream
TTITLE3=Goodbye Again
TTITLE4=Water Under The Bridge
TTITLE5=I Never Did Sing You A Love Song
TTITLE6=It's So Easy
TTITLE7=The Air That I Breathe
TTITLE8=Follow Me
TTITLE9=And In The Morning
TTITLE10=Please Mr. Please
EXTD=
EXTT0=
EXTT1=
EXTT2=
EXTT3=
EXTT4=
EXTT5=
EXTT6=
EXTT7=
EXTT8=
EXTT9=
EXTT10=
PLAYORDER=
